<svg width="12" height="17" viewBox="0 0 12 17" fill="none" xmlns="http://www.w3.org/2000/svg">
<path fill-rule="evenodd" clip-rule="evenodd" d="M10.0828 5.37512H1.79216C1.33451 5.37512 0.963501 5.76361 0.963501 6.24283V13.1876C0.963501 14.6259 2.07696 15.7918 3.45048 15.7918H8.42444C9.08403 15.7918 9.7166 15.5174 10.183 15.029C10.6494 14.5407 10.9114 13.8783 10.9114 13.1876V6.24283C10.9114 5.76361 10.5404 5.37512 10.0828 5.37512Z" stroke="#E32A34" stroke-width="1.5" stroke-linecap="round" stroke-linejoin="round"/>
<path fill-rule="evenodd" clip-rule="evenodd" d="M8.92188 3.29173L8.81643 3.07194C8.27118 1.9298 7.15643 1.20831 5.937 1.20831C4.71757 1.20831 3.60282 1.9298 3.05758 3.07194L2.95312 3.29173H8.92188Z" stroke="#E32A34" stroke-width="1.5" stroke-linecap="round" stroke-linejoin="round"/>
<path d="M5.02914 8.84696C5.02914 8.43274 4.69336 8.09696 4.27914 8.09696C3.86493 8.09696 3.52914 8.43274 3.52914 8.84696H5.02914ZM3.52914 12.3188C3.52914 12.733 3.86493 13.0688 4.27914 13.0688C4.69336 13.0688 5.02914 12.733 5.02914 12.3188H3.52914ZM8.34578 8.84696C8.34578 8.43274 8.00999 8.09696 7.59578 8.09696C7.18156 8.09696 6.84578 8.43274 6.84578 8.84696H8.34578ZM6.84578 12.3188C6.84578 12.733 7.18156 13.0688 7.59578 13.0688C8.00999 13.0688 8.34578 12.733 8.34578 12.3188H6.84578ZM8.92183 2.54175C8.50762 2.54175 8.17183 2.87753 8.17183 3.29175C8.17183 3.70596 8.50762 4.04175 8.92183 4.04175V2.54175ZM10.9114 4.04175C11.3256 4.04175 11.6614 3.70596 11.6614 3.29175C11.6614 2.87753 11.3256 2.54175 10.9114 2.54175V4.04175ZM2.95308 4.04175C3.3673 4.04175 3.70308 3.70596 3.70308 3.29175C3.70308 2.87753 3.3673 2.54175 2.95308 2.54175V4.04175ZM0.963501 2.54175C0.549287 2.54175 0.213501 2.87753 0.213501 3.29175C0.213501 3.70596 0.549287 4.04175 0.963501 4.04175V2.54175ZM3.52914 8.84696V12.3188H5.02914V8.84696H3.52914ZM6.84578 8.84696V12.3188H8.34578V8.84696H6.84578ZM8.92183 4.04175H10.9114V2.54175H8.92183V4.04175ZM2.95308 2.54175H0.963501V4.04175H2.95308V2.54175Z" fill="#E32A34"/>
</svg>
