<svg width="14" height="17" viewBox="0 0 14 17" fill="none" xmlns="http://www.w3.org/2000/svg">
<path d="M7.74098 4.25767C7.99274 3.92874 7.93018 3.45801 7.60126 3.20625C7.27234 2.95449 6.8016 3.01705 6.54984 3.34597L7.74098 4.25767ZM1.27813 11.4674L1.85712 11.9442C1.86277 11.9373 1.8683 11.9303 1.8737 11.9233L1.27813 11.4674ZM1.10802 11.9029L0.35935 11.8562L0.358753 11.8697L1.10802 11.9029ZM0.96875 15.0518L0.219482 15.0187C0.217909 15.0543 0.218871 15.0899 0.222362 15.1253L0.96875 15.0518ZM1.75165 15.7674L1.77732 16.517C1.8296 16.5152 1.88154 16.508 1.9323 16.4954L1.75165 15.7674ZM4.73603 15.0268L4.9167 15.7548L4.92878 15.7516L4.73603 15.0268ZM5.11902 14.7727L5.70822 15.2368L5.71447 15.2287L5.11902 14.7727ZM11.723 7.38283C11.9749 7.05397 11.9124 6.58322 11.5836 6.33137C11.2547 6.07952 10.784 6.14195 10.5321 6.47081L11.723 7.38283ZM6.55298 3.34577C6.30111 3.67461 6.36351 4.14537 6.69235 4.39723C7.02119 4.6491 7.49194 4.5867 7.74381 4.25786L6.55298 3.34577ZM8.72812 1.73932L9.32354 2.19536C9.33299 2.18303 9.34205 2.1704 9.35072 2.1575L8.72812 1.73932ZM10.3486 1.40598L10.8414 0.840596C10.8177 0.819912 10.7927 0.800743 10.7665 0.783202L10.3486 1.40598ZM12.574 3.34557L13.1169 2.82808C13.1009 2.81135 13.0842 2.79537 13.0668 2.78018L12.574 3.34557ZM12.9092 4.20065L13.6592 4.20458V4.20458L12.9092 4.20065ZM12.565 5.05182L12.0279 4.5284C12.0072 4.5496 11.9878 4.57201 11.9698 4.5955L12.565 5.05182ZM10.5324 6.4705C10.2803 6.79922 10.3425 7.27001 10.6712 7.52203C11 7.77404 11.4708 7.71186 11.7228 7.38314L10.5324 6.4705ZM7.89083 3.69557C7.83215 3.28553 7.45218 3.0007 7.04215 3.05938C6.63211 3.11806 6.34728 3.49803 6.40596 3.90807L7.89083 3.69557ZM11.2332 7.66934C11.6433 7.61099 11.9284 7.23126 11.8701 6.82117C11.8117 6.41109 11.432 6.12595 11.0219 6.1843L11.2332 7.66934ZM6.54984 3.34597L0.682562 11.0116L1.8737 11.9233L7.74098 4.25767L6.54984 3.34597ZM0.699136 10.9907C0.496311 11.2371 0.379093 11.5412 0.359471 11.8562L1.85657 11.9495C1.85674 11.9467 1.85731 11.9447 1.85776 11.9436C1.85821 11.9424 1.85829 11.9427 1.85712 11.9442L0.699136 10.9907ZM0.358753 11.8697L0.219482 15.0187L1.71802 15.085L1.85729 11.936L0.358753 11.8697ZM0.222362 15.1253C0.299295 15.9064 0.95311 16.5452 1.77732 16.517L1.72598 15.0179C1.72812 15.0178 1.73116 15.0183 1.73342 15.0192C1.73516 15.0198 1.73423 15.0199 1.73163 15.0175C1.72645 15.0127 1.71736 15.0009 1.71514 14.9783L0.222362 15.1253ZM1.9323 16.4954L4.91667 15.7547L4.55538 14.2989L1.57101 15.0395L1.9323 16.4954ZM4.92878 15.7516C5.24007 15.6688 5.51183 15.486 5.70816 15.2368L4.52988 14.3085C4.52896 14.3097 4.53242 14.3049 4.54327 14.302L4.92878 15.7516ZM5.71447 15.2287L11.723 7.38283L10.5321 6.47081L4.52357 14.3166L5.71447 15.2287ZM7.74381 4.25786L9.32354 2.19536L8.13271 1.28327L6.55298 3.34577L7.74381 4.25786ZM9.35072 2.1575C9.49452 1.94341 9.74649 1.90513 9.93074 2.02877L10.7665 0.783202C9.87425 0.184454 8.6973 0.440097 8.10553 1.32113L9.35072 2.1575ZM9.85586 1.97137L12.0812 3.91096L13.0668 2.78018L10.8414 0.840596L9.85586 1.97137ZM12.0311 3.86305C12.1101 3.94587 12.1599 4.06542 12.1592 4.19671L13.6592 4.20458C13.6618 3.695 13.4703 3.19886 13.1169 2.82808L12.0311 3.86305ZM12.1592 4.19671C12.1585 4.32799 12.1074 4.44674 12.0279 4.5284L13.1022 5.57523C13.4597 5.20831 13.6565 4.71418 13.6592 4.20458L12.1592 4.19671ZM11.9698 4.5955L10.5324 6.4705L11.7228 7.38314L13.1602 5.50814L11.9698 4.5955ZM6.40596 3.90807C6.74719 6.29248 8.87347 8.00508 11.2332 7.66934L11.0219 6.1843C9.54298 6.39471 8.12371 5.32285 7.89083 3.69557L6.40596 3.90807Z" fill="#034EA2"/>
</svg>
